{
  "accessors": [
    {
      "bufferView": 1,
      "componentType": 5126,
      "count": 16749,
      "max": [
        0.9983063340187073,
        1.7042899131774902,
        1.0
      ],
      "min": [
        -1.0,
        -1.6965677738189697,
        -1.563035488128662
      ],
      "type": "VEC3"
    },
    {
      "bufferView": 1,
      "byteOffset": 200988,
      "componentType": 5126,
      "count": 16749,
      "max": [
        0.9999998807907104,
        0.9981476664543152,
        1.0
      ],
      "min": [
        -1.0,
        -0.9975318312644958,
        -0.9999613761901855
      ],
      "type": "VEC3"
    },
    {
      "bufferView": 0,
      "componentType": 5125,
      "count": 99633,
      "type": "SCALAR"
    },
    {
      "bufferView": 1,
      "byteOffset": 401976,
      "componentType": 5126,
      "count": 2405,
      "max": [
        1.15732741355896,
        1.1727039813995361,
        1.8628596067428589
      ],
      "min": [
        -1.1758253574371338,
        -1.1161251068115234,
        -0.5521866083145142
      ],
      "type": "VEC3"
    },
    {
      "bufferView": 1,
      "byteOffset": 430836,
      "componentType": 5126,
      "count": 2405,
      "max": [
        1.0,
        1.0,
        1.0
      ],
      "min": [
        -1.0,
        -1.0,
        -1.0
      ],
      "type": "VEC3"
    },
    {
      "bufferView": 0,
      "byteOffset": 398532,
      "componentType": 5125,
      "count": 13224,
      "type": "SCALAR"
    },
    {
      "bufferView": 1,
      "byteOffset": 459696,
      "componentType": 5126,
      "count": 3264,
      "max": [
        1.2566156387329102,
        1.2980551719665527,
        2.2058234214782715
      ],
      "min": [
        -0.25738805532455444,
        -1.244046688079834,
        0.29900288581848145
      ],
      "type": "VEC3"
    },
    {
      "bufferView": 1,
      "byteOffset": 498864,
      "componentType": 5126,
      "count": 3264,
      "max": [
        0.9999730587005615,
        0.9999730587005615,
        0.9974902868270874
      ],
      "min": [
        -0.9999804496765137,
        -0.9999804496765137,
        -0.9974902868270874
      ],
      "type": "VEC3"
    },
    {
      "bufferView": 0,
      "byteOffset": 451428,
      "componentType": 5125,
      "count": 19404,
      "type": "SCALAR"
    },
    {
      "bufferView": 1,
      "byteOffset": 538032,
      "componentType": 5126,
      "count": 589,
      "max": [
        1.1355242729187012,
        1.1209341287612915,
        2.161602258682251
      ],
      "min": [
        -1.154022455215454,
        -1.047637701034546,
        0.05122837424278259
      ],
      "type": "VEC3"
    },
    {
      "bufferView": 1,
      "byteOffset": 545100,
      "componentType": 5126,
      "count": 589,
      "max": [
        0.9932131767272949,
        0.9925695657730103,
        1.0
      ],
      "min": [
        -1.0,
        -0.9925695657730103,
        -0.48776882886886597
      ],
      "type": "VEC3"
    },
    {
      "bufferView": 0,
      "byteOffset": 529044,
      "componentType": 5125,
      "count": 3108,
      "type": "SCALAR"
    },
    {
      "bufferView": 1,
      "byteOffset": 552168,
      "componentType": 5126,
      "count": 70,
      "max": [
        1.1173973083496094,
        1.1632941961288452,
        1.7962671518325806
      ],
      "min": [
        -0.4403974413871765,
        -1.0899972915649414,
        1.0249927043914795
      ],
      "type": "VEC3"
    },
    {
      "bufferView": 1,
      "byteOffset": 553008,
      "componentType": 5126,
      "count": 70,
      "max": [
        1.0,
        1.0,
        0.6696625351905823
      ],
      "min": [
        -0.38268154859542847,
        -1.0,
        -0.48776116967201233
      ],
      "type": "VEC3"
    },
    {
      "bufferView": 0,
      "byteOffset": 541476,
      "componentType": 5125,
      "count": 252,
      "type": "SCALAR"
    }
  ],
  "asset": {
    "extras": {
      "author": "Mayak001 (https://sketchfab.com/Mayak001)",
      "license": "CC-BY-4.0 (http://creativecommons.org/licenses/by/4.0/)",
      "source": "https://sketchfab.com/3d-models/scubaman-332c6c52881b4cc99923e2bc6dd4face",
      "title": "Scubaman"
    },
    "generator": "Sketchfab-12.66.0",
    "version": "2.0"
  },
  "bufferViews": [
    {
      "buffer": 0,
      "byteLength": 542484,
      "name": "floatBufferViews",
      "target": 34963
    },
    {
      "buffer": 0,
      "byteLength": 553848,
      "byteOffset": 542484,
      "byteStride": 12,
      "name": "floatBufferViews",
      "target": 34962
    }
  ],
  "buffers": [
    {
      "byteLength": 1096332,
      "uri": "scene.bin"
    }
  ],
  "materials": [
    {
      "doubleSided": true,
      "name": "Material.001",
      "pbrMetallicRoughness": {
        "baseColorFactor": [
          0.0005404920000000017,
          0.13372200000000023,
          0.226584,
          1.0
        ],
        "metallicFactor": 0.7456173780487805
      }
    },
    {
      "doubleSided": true,
      "name": "Material.003",
      "pbrMetallicRoughness": {
        "baseColorFactor": [
          0.7999999999999999,
          0.28878899999999996,
          0.005711060000000001,
          1.0
        ],
        "roughnessFactor": 0.12633384146341464
      }
    },
    {
      "doubleSided": true,
      "name": "Material.004",
      "pbrMetallicRoughness": {
        "baseColorFactor": [
          0.7999999999999999,
          0.235064,
          0.03257249999999999,
          1.0
        ],
        "metallicFactor": 0.8614710365853658,
        "roughnessFactor": 0.0
      }
    },
    {
      "doubleSided": true,
      "name": "Material.002",
      "pbrMetallicRoughness": {
        "baseColorFactor": [
          0.0005404920000000017,
          0.13372200000000023,
          0.226584,
          1.0
        ],
        "roughnessFactor": 0.40682164634146345
      }
    },
    {
      "doubleSided": true,
      "name": "Material.005",
      "pbrMetallicRoughness": {
        "baseColorFactor": [
          0.00714182,
          0.00950958,
          0.0203789,
          1.0
        ],
        "metallicFactor": 0.0,
        "roughnessFactor": 0.8239417257461427
      }
    }
  ],
  "meshes": [
    {
      "name": "Sphere_Material.001_0",
      "primitives": [
        {
          "attributes": {
            "NORMAL": 1,
            "POSITION": 0
          },
          "indices": 2,
          "material": 0,
          "mode": 4
        }
      ]
    },
    {
      "name": "Sphere_Material.003_0",
      "primitives": [
        {
          "attributes": {
            "NORMAL": 4,
            "POSITION": 3
          },
          "indices": 5,
          "material": 1,
          "mode": 4
        }
      ]
    },
    {
      "name": "Sphere_Material.004_0",
      "primitives": [
        {
          "attributes": {
            "NORMAL": 7,
            "POSITION": 6
          },
          "indices": 8,
          "material": 2,
          "mode": 4
        }
      ]
    },
    {
      "name": "Sphere_Material.002_0",
      "primitives": [
        {
          "attributes": {
            "NORMAL": 10,
            "POSITION": 9
          },
          "indices": 11,
          "material": 3,
          "mode": 4
        }
      ]
    },
    {
      "name": "Sphere_Material.005_0",
      "primitives": [
        {
          "attributes": {
            "NORMAL": 13,
            "POSITION": 12
          },
          "indices": 14,
          "material": 4,
          "mode": 4
        }
      ]
    }
  ],
  "nodes": [
    {
      "children": [
        1
      ],
      "matrix": [
        1.0,
        0.0,
        0.0,
        0.0,
        0.0,
        2.220446049250313e-16,
        -1.0,
        0.0,
        0.0,
        1.0,
        2.220446049250313e-16,
        0.0,
        0.0,
        0.0,
        0.0,
        1.0
      ],
      "name": "Sketchfab_model"
    },
    {
      "children": [
        2
      ],
      "matrix": [
        1.0,
        0.0,
        0.0,
        0.0,
        0.0,
        0.0,
        1.0,
        0.0,
        0.0,
        -1.0,
        0.0,
        0.0,
        0.0,
        0.0,
        0.0,
        1.0
      ],
      "name": "42f2f788852f4f58a341a8330e595bc6.fbx"
    },
    {
      "children": [
        3,
        9,
        12
      ],
      "name": "RootNode"
    },
    {
      "children": [
        4,
        5,
        6,
        7,
        8
      ],
      "matrix": [
        8.61725483020732e-06,
        2.456785182193208e-15,
        44.25750732421791,
        0.0,
        44.257507324217784,
        3.341348844452986e-06,
        -8.617254825293749e-06,
        0.0,
        -4.579527473145865e-06,
        60.65768051147443,
        8.889349065193839e-13,
        0.0,
        -1.630479097366333,
        118.30474090576172,
        11.340069770812988,
        1.0
      ],
      "name": "Sphere"
    },
    {
      "mesh": 0,
      "name": "Sphere_Material.001_0"
    },
    {
      "mesh": 1,
      "name": "Sphere_Material.003_0"
    },
    {
      "mesh": 2,
      "name": "Sphere_Material.004_0"
    },
    {
      "mesh": 3,
      "name": "Sphere_Material.002_0"
    },
    {
      "mesh": 4,
      "name": "Sphere_Material.005_0"
    },
    {
      "children": [
        10
      ],
      "matrix": [
        -29.086466012969506,
        -5.518904334943286,
        -95.51712263095594,
        0.0,
        56.63931168888501,
        79.46723477095061,
        -21.83911557888623,
        0.0,
        77.110090100962,
        -60.45246312143063,
        -19.988339280030054,
        0.0,
        -110.95318603515625,
        50.455902099609375,
        479.209228515625,
        1.0
      ],
      "name": "Lamp"
    },
    {
      "children": [
        11
      ],
      "matrix": [
        1.0,
        0.0,
        0.0,
        0.0,
        0.0,
        2.220446049250313e-16,
        1.0,
        0.0,
        0.0,
        -1.0,
        2.220446049250313e-16,
        0.0,
        0.0,
        0.0,
        0.0,
        1.0
      ],
      "name": "Object_10"
    },
    {
      "name": "Object_11"
    },
    {
      "children": [
        13
      ],
      "matrix": [
        -29.744778757717107,
        -22.623554523334803,
        -92.75463825267263,
        0.0,
        -2.746932136339593,
        97.31449247091217,
        -22.854844540427806,
        0.0,
        95.434276393588,
        -4.250215653596489,
        -29.567431918435666,
        0.0,
        135.3527069091797,
        276.9732971191406,
        557.2611694335938,
        1.0
      ],
      "name": "Camera"
    },
    {
      "name": "Object_13"
    }
  ],
  "scene": 0,
  "scenes": [
    {
      "name": "Sketchfab_Scene",
      "nodes": [
        0
      ]
    }
  ]
}
